<?xml version="1.0"?>
<svg xmlns="http://www.w3.org/2000/svg" xmlns:xlink="http://www.w3.org/1999/xlink" xmlns:svgjs="http://svgjs.com/svgjs" version="1.1" width="512" height="512" x="0" y="0" viewBox="0 0 512 512" style="enable-background:new 0 0 512 512" xml:space="preserve" class=""><g><path xmlns="http://www.w3.org/2000/svg" d="m392 165c0 2.800781-.332031 5.515625-.824219 8.175781l26.664063 15.394531c2.488281-7.457031 4.160156-15.289062 4.160156-23.570312s-1.671875-16.113281-4.160156-23.570312l-26.664063 15.394531c.492188 2.660156.824219 5.375.824219 8.175781zm0 0" fill="#ffffff" data-original="#000000" style="" class=""/><path xmlns="http://www.w3.org/2000/svg" d="m402.851562 115.4375c-10.582031-11.910156-24.667968-20.621094-40.851562-23.917969v31.242188c5.207031 1.859375 9.917969 4.632812 14.042969 8.152343zm0 0" fill="#ffffff" data-original="#000000" style="" class=""/><path xmlns="http://www.w3.org/2000/svg" d="m302.824219 173.175781c-.492188-2.660156-.824219-5.375-.824219-8.175781s.332031-5.515625.824219-8.175781l-26.664063-15.394531c-2.488281 7.457031-4.160156 15.289062-4.160156 23.570312s1.671875 16.113281 4.160156 23.570312zm0 0" fill="#ffffff" data-original="#000000" style="" class=""/><path xmlns="http://www.w3.org/2000/svg" d="m347 180c8.277344 0 15-6.722656 15-15s-6.722656-15-15-15-15 6.722656-15 15 6.722656 15 15 15zm0 0" fill="#ffffff" data-original="#000000" style="" class=""/><path xmlns="http://www.w3.org/2000/svg" d="m332 122.761719v-31.242188c-16.183594 3.296875-30.269531 12.007813-40.851562 23.917969l26.808593 15.476562c4.125-3.519531 8.835938-6.292968 14.042969-8.152343zm0 0" fill="#ffffff" data-original="#000000" style="" class=""/><path xmlns="http://www.w3.org/2000/svg" d="m347 330c90.980469 0 165-74.019531 165-165s-74.019531-165-165-165-165 74.019531-165 165 74.019531 165 165 165zm0-270c60.222656 0 105 51.355469 105 105 0 55.449219-45.902344 105-105 105-59.148438 0-105-49.65625-105-105s45.777344-105 105-105zm0 0" fill="#ffffff" data-original="#000000" style="" class=""/><path xmlns="http://www.w3.org/2000/svg" d="m291.148438 214.5625c10.582031 11.910156 24.667968 20.621094 40.851562 23.917969v-31.242188c-5.207031-1.859375-9.917969-4.632812-14.042969-8.152343zm0 0" fill="#ffffff" data-original="#000000" style="" class=""/><path xmlns="http://www.w3.org/2000/svg" d="m362 207.238281v31.242188c16.183594-3.296875 30.269531-12.007813 40.851562-23.917969l-26.808593-15.476562c-4.125 3.519531-8.835938 6.292968-14.042969 8.152343zm0 0" fill="#ffffff" data-original="#000000" style="" class=""/><path xmlns="http://www.w3.org/2000/svg" d="m172.289062 325.707031 55.269532-6.910156c-45.878906-35.710937-75.558594-91.292969-75.558594-153.796875 0-22.328125 3.960938-43.710938 10.902344-63.707031-26.898438-3.589844-49.496094-18.019531-64.550782-28.871094-6.738281-4.832031-12.378906-8.761719-16.847656-10.914063-4.613281-2.195312-10.078125-1.917968-14.488281.820313-4.363281 2.738281-7.015625 7.542969-7.015625 12.699219 0 42.246094 20.1875 82.605468 53.992188 107.960937 7.984374 6.003907 5.980468 14.371094 5.171874 16.785157-.804687 2.40625-4.1875 10.226562-14.164062 10.226562-2.855469 0-2.960938 0-21.972656-6.855469-12.304688-4.4375-31.613282-11.394531-63.105469-22.308593-4.613281-1.613282-9.667969-.878907-13.621094 1.945312-3.957031 2.816406-6.300781 7.371094-6.300781 12.21875 0 37.835938 15.265625 72.15625 42.992188 96.636719 34.367187 30.316406 83.109374 39.875 129.296874 34.070312zm0 0" fill="#ffffff" data-original="#000000" style="" class=""/></g></svg>
